<?xml version="1.0" standalone="no"?>
<!DOCTYPE svg PUBLIC "-//W3C//DTD SVG 20010904//EN"
 "http://www.w3.org/TR/2001/REC-SVG-20010904/DTD/svg10.dtd">
<svg version="1.0" xmlns="http://www.w3.org/2000/svg"
 width="1187.000000pt" height="1187.000000pt" viewBox="0 0 1187.000000 1187.000000"
 preserveAspectRatio="xMidYMid meet">
<metadata>
Created by potrace 1.14, written by Peter Selinger 2001-2017
</metadata>
<g transform="translate(0.000000,1187.000000) scale(0.100000,-0.100000)"
fill="#000000" stroke="none">
<path d="M5777 11853 c-1 -1 -63 -4 -137 -7 -74 -3 -151 -8 -170 -11 -19 -2
-65 -7 -102 -10 -37 -3 -75 -7 -85 -9 -10 -2 -43 -7 -73 -10 -156 -20 -158
-20 -275 -42 -44 -8 -96 -16 -115 -19 -19 -3 -111 -23 -205 -46 -93 -22 -177
-42 -185 -43 -8 -2 -49 -13 -90 -26 -41 -13 -82 -25 -91 -26 -99 -19 -699
-249 -819 -314 -8 -5 -67 -34 -130 -65 -121 -59 -407 -219 -475 -265 -22 -15
-80 -54 -130 -86 -49 -32 -94 -62 -100 -67 -5 -4 -53 -38 -105 -74 -92 -65
-120 -86 -144 -109 -6 -6 -30 -24 -53 -41 -45 -32 -118 -92 -163 -133 -15 -14
-49 -43 -75 -65 -139 -116 -423 -401 -555 -555 -25 -29 -54 -62 -65 -75 -31
-34 -57 -67 -89 -110 -17 -22 -33 -42 -36 -45 -3 -3 -21 -25 -40 -50 -19 -25
-40 -52 -47 -60 -38 -48 -83 -111 -83 -116 0 -2 -5 -10 -10 -17 -27 -31 -111
-154 -116 -169 -3 -10 -9 -18 -13 -18 -4 0 -16 -18 -26 -40 -10 -22 -22 -40
-27 -40 -4 0 -8 -7 -8 -15 0 -8 -3 -15 -7 -15 -8 0 -30 -34 -67 -105 -12 -22
-29 -51 -38 -65 -27 -42 -85 -150 -140 -260 -29 -58 -56 -108 -61 -111 -5 -3
-8 -8 -6 -10 1 -2 -8 -26 -21 -54 -13 -27 -22 -51 -22 -52 1 -2 -7 -19 -18
-38 -11 -20 -20 -42 -20 -50 0 -8 -4 -15 -10 -15 -5 0 -10 -4 -10 -9 0 -5 -5
-22 -12 -38 -6 -15 -12 -30 -13 -33 0 -3 -7 -16 -15 -30 -7 -14 -12 -25 -11
-25 1 0 -3 -13 -9 -30 -7 -16 -13 -34 -14 -40 -3 -10 -19 -53 -33 -85 -3 -8
-7 -17 -7 -20 -1 -3 -4 -9 -7 -15 -6 -9 -51 -139 -55 -157 -1 -5 -3 -10 -4
-13 -1 -3 -3 -8 -4 -12 -1 -5 -5 -14 -9 -20 -5 -7 -6 -13 -2 -13 3 0 -1 -13
-10 -30 -9 -16 -13 -30 -10 -30 3 0 -1 -17 -9 -37 -13 -35 -29 -95 -27 -101 1
-1 -5 -18 -13 -37 -8 -19 -13 -35 -11 -35 2 0 -3 -19 -11 -42 -8 -23 -16 -53
-19 -67 -5 -25 -10 -51 -19 -88 -22 -91 -33 -142 -41 -183 -10 -51 -13 -66
-18 -100 -14 -81 -17 -96 -22 -120 -3 -14 -8 -45 -11 -70 -3 -25 -7 -56 -9
-70 -2 -14 -7 -50 -11 -80 -3 -30 -7 -66 -9 -80 -2 -14 -7 -61 -10 -105 -4
-44 -9 -88 -11 -98 -6 -31 -17 -354 -17 -475 1 -200 20 -519 39 -647 3 -22 7
-51 9 -65 2 -14 7 -50 11 -80 4 -30 7 -58 6 -63 -1 -4 4 -40 12 -80 8 -39 20
-103 27 -142 50 -285 200 -816 285 -1010 10 -22 19 -44 20 -50 17 -79 253
-576 363 -765 101 -174 186 -310 194 -310 4 0 7 -5 7 -11 0 -14 158 -241 172
-247 5 -2 8 -8 8 -14 0 -5 6 -15 13 -23 6 -7 21 -25 32 -40 37 -52 147 -190
184 -231 20 -22 54 -62 76 -89 129 -154 404 -429 575 -575 29 -25 62 -53 74
-64 11 -10 41 -35 66 -55 25 -20 47 -39 48 -43 2 -5 8 -8 13 -8 6 0 20 -10 33
-22 13 -13 34 -31 47 -40 30 -21 62 -46 99 -75 15 -13 31 -23 34 -23 4 0 12
-5 19 -10 45 -38 61 -50 67 -50 3 0 15 -8 26 -17 25 -23 113 -83 120 -83 3 0
20 -11 38 -25 18 -14 38 -25 44 -25 6 0 12 -3 14 -7 4 -11 85 -63 96 -63 5 0
19 -9 32 -20 13 -11 29 -20 36 -20 7 0 19 -6 26 -13 7 -7 38 -26 68 -43 30
-16 58 -33 62 -39 4 -5 8 -6 8 -2 0 5 7 1 16 -7 8 -9 19 -14 24 -11 5 3 10 2
12 -3 4 -10 240 -128 250 -124 5 1 8 -2 8 -8 0 -5 7 -10 15 -10 8 0 30 -9 49
-19 19 -11 37 -17 40 -14 3 4 6 0 6 -7 0 -7 3 -11 6 -7 3 3 26 -6 50 -19 24
-14 44 -22 44 -19 0 3 10 0 23 -7 12 -7 24 -13 27 -13 3 -1 22 -9 44 -18 21
-9 42 -17 47 -17 5 0 17 -4 27 -9 14 -8 36 -17 62 -26 3 -1 14 -5 25 -9 75
-29 102 -38 117 -41 9 -2 26 -9 37 -15 12 -6 21 -8 21 -4 0 3 6 2 13 -4 7 -6
24 -13 37 -16 14 -2 44 -11 68 -20 23 -8 44 -15 47 -16 8 0 17 -3 75 -19 25
-7 56 -15 69 -18 13 -2 32 -8 43 -14 10 -5 18 -7 18 -5 0 3 18 -1 40 -9 22 -8
43 -14 45 -14 3 0 18 -2 33 -5 15 -4 37 -9 49 -11 51 -11 65 -14 81 -19 17 -5
49 -11 111 -22 18 -3 43 -8 55 -10 11 -2 36 -7 55 -10 18 -3 43 -7 55 -10 11
-2 32 -6 46 -8 14 -3 48 -8 75 -11 28 -3 65 -8 83 -11 70 -9 100 -13 162 -19
36 -3 83 -8 105 -10 311 -33 915 -20 1220 25 33 5 85 12 115 15 77 9 365 61
442 80 34 8 72 17 83 19 211 39 716 207 1020 341 117 51 360 170 363 178 2 4
8 7 13 7 13 0 263 143 267 152 2 5 8 8 14 8 16 0 268 162 373 240 50 36 106
77 125 90 35 25 62 46 84 65 6 6 29 24 51 40 22 17 45 35 52 40 6 6 31 26 54
45 24 19 58 49 76 65 17 17 53 49 80 70 51 43 232 215 292 279 20 21 63 66 96
100 33 35 78 84 100 110 22 27 51 60 65 76 54 59 77 87 105 125 17 22 35 45
40 51 6 6 21 26 35 44 14 18 32 41 40 50 8 10 22 28 30 40 8 12 21 28 28 36 6
7 12 17 12 22 0 6 4 12 8 14 5 2 23 26 42 53 19 28 42 59 52 69 10 11 18 26
18 33 0 7 5 13 10 13 6 0 10 7 10 15 0 8 5 15 10 15 6 0 10 7 10 15 0 8 4 15
10 15 5 0 12 11 16 25 3 14 10 25 14 25 5 0 12 9 15 20 3 11 12 26 19 32 16
18 99 155 117 195 7 18 17 33 21 33 5 0 8 6 8 14 0 7 7 19 15 26 8 7 13 16 10
20 -3 5 -2 10 3 12 4 1 28 44 52 93 25 50 48 92 53 93 4 2 5 8 1 13 -3 5 0 9
5 9 6 0 11 4 11 9 0 5 15 42 34 83 19 40 35 76 36 80 0 4 12 28 25 53 14 25
23 45 21 45 -3 0 6 20 20 45 13 25 22 45 19 45 -3 0 4 17 15 37 11 21 20 43
20 50 0 8 4 21 9 31 12 21 23 57 19 58 -2 0 2 7 8 15 9 11 40 94 49 129 1 3 5
14 9 25 29 76 35 95 30 95 -4 0 -2 6 4 12 9 12 37 103 31 103 -1 0 3 9 9 21 6
11 13 32 16 45 3 13 12 49 21 79 9 30 18 66 21 80 3 14 7 32 9 40 2 8 4 15 5
15 1 0 3 7 5 15 2 8 6 26 9 40 3 14 7 34 10 45 36 154 36 156 51 248 8 45 14
78 20 107 2 13 7 40 10 60 3 20 7 45 9 57 3 12 7 48 11 80 3 32 8 72 10 88 3
17 7 57 10 90 4 33 8 76 10 95 24 221 24 909 0 1040 -1 8 -6 47 -10 85 -4 39
-9 84 -11 100 -3 17 -7 53 -10 80 -2 28 -14 102 -25 165 -11 63 -22 126 -24
140 -2 14 -11 59 -20 100 -9 41 -18 86 -21 100 -15 75 -69 282 -105 400 -23
74 -42 140 -43 145 -1 6 -4 15 -7 20 -4 6 -14 35 -24 65 -19 60 -71 203 -85
235 -5 11 -23 54 -39 95 -49 124 -138 317 -213 460 -90 171 -200 364 -210 368
-4 2 -8 9 -8 16 0 7 -8 21 -17 32 -10 10 -27 36 -38 57 -11 20 -23 37 -27 37
-5 0 -8 5 -8 11 0 11 -154 237 -170 249 -3 3 -16 21 -28 40 -12 19 -32 47 -45
62 -13 15 -32 39 -43 54 -10 14 -23 31 -29 38 -5 6 -22 27 -36 46 -15 19 -37
46 -49 60 -12 14 -42 49 -68 79 -26 30 -67 77 -92 105 -72 81 -369 376 -439
436 -35 30 -76 66 -91 80 -51 48 -132 115 -149 124 -9 5 -23 16 -32 25 -8 9
-28 25 -43 36 -15 11 -42 32 -59 47 -18 15 -35 28 -38 28 -5 0 -22 13 -66 50
-7 5 -15 10 -18 10 -4 0 -13 6 -20 13 -27 24 -40 33 -72 52 -18 11 -33 23 -33
27 0 4 -7 8 -15 8 -8 0 -15 3 -15 8 0 4 -17 16 -37 27 -21 11 -40 22 -43 25
-5 5 -87 58 -135 87 -11 7 -28 16 -37 19 -10 3 -18 10 -18 14 0 4 -15 13 -32
21 -18 7 -35 16 -38 19 -3 4 -30 20 -60 36 -30 16 -58 33 -62 39 -5 7 -8 7 -8
0 0 -6 -3 -6 -8 0 -9 14 -431 222 -439 217 -2 -1 -23 10 -48 23 -25 14 -47 25
-50 25 -3 0 -22 7 -43 16 -20 8 -44 17 -52 19 -8 2 -33 11 -55 21 -70 29 -331
122 -365 129 -3 0 -21 6 -40 13 -19 6 -46 14 -60 16 -14 3 -26 5 -27 7 -2 1
-6 2 -10 3 -50 13 -103 29 -123 36 -14 5 -41 12 -60 15 -19 3 -53 11 -75 16
-37 10 -49 13 -100 24 -11 3 -31 7 -45 11 -14 3 -34 7 -45 9 -11 2 -33 6 -50
9 -16 4 -46 9 -65 12 -19 3 -46 8 -60 10 -14 3 -34 7 -45 9 -11 2 -33 6 -50 8
-16 3 -55 9 -85 12 -30 3 -66 8 -80 10 -108 17 -278 33 -440 41 -115 6 -479
11 -483 7z"/>
</g>
</svg>
